<svg xmlns="http://www.w3.org/2000/svg" xmlns:xlink="http://www.w3.org/1999/xlink" viewBox="0 0 500 500"><defs><style>.cls-1{fill:#3f6b41;}.cls-2{fill:#4a824a;}.cls-3{fill:#eb9481;}.cls-4{fill:#fff;}.cls-5{fill:#a6a6a6;}.cls-6{fill:#263238;}.cls-7{fill:#37474f;}.cls-8{fill:#599b5e;}.cls-9{clip-path:url(#clip-path);}.cls-10{opacity:0.2;}.cls-11{fill:#4f8c55;}.cls-12{clip-path:url(#clip-path-2);}.cls-13{fill:#629665;}.cls-14{opacity:0.1;}.cls-15{fill:#4e666d;}.cls-16{fill:none;stroke:#f5a79e;stroke-linecap:round;stroke-linejoin:round;stroke-width:0;}.cls-17{fill:#ff99ba;}.cls-18{opacity:0.25;}.cls-19{opacity:0.3;}</style><clipPath id="clip-path"><rect class="cls-1" x="292.81" y="80.38" width="157.28" height="138.44"/></clipPath><clipPath id="clip-path-2"><path class="cls-2" d="M476,265.42c-5-8.57-25.89-46.6-25.89-46.6h-33.3l17.14,46.6Z"/></clipPath></defs><g id="Character"><path class="cls-3" d="M293.11,481.09c-3.28,1.12-97.3,1.45-100.9-.81-1.36-.85-2.21-14.54-2.76-31.11-.12-3.58-.22-7.27-.31-11L181.52,388l62.85-.41,5.94,50.16-.25,11s36.06,16,39.74,18.87S296.39,480,293.11,481.09Z"/><path class="cls-4" d="M293.11,481.09c-3.28,1.12-97.3,1.45-100.9-.81-1.66-1-2.56-21-3.07-42.14l61.17-.39-.25,11s36.06,16,39.74,18.87S296.39,480,293.11,481.09Z"/><path class="cls-5" d="M293.11,481.09c-3.28,1.12-97.3,1.45-100.9-.81-1.36-.85-2.21-14.54-2.76-31.11l60.61-.39s36.06,16,39.74,18.87S296.39,480,293.11,481.09Z"/><path class="cls-6" d="M291.75,477.34c-15.76-.33-79.37-.18-95,.69-.13,0-.13.09,0,.1,15.61.67,79.21,0,95-.53C292.08,477.59,292.08,477.35,291.75,477.34Z"/><path class="cls-6" d="M283.74,464.29a12.68,12.68,0,0,0-9.42,3.88,12.29,12.29,0,0,0-3.49,8.43c0,.09.17.1.19,0a14.63,14.63,0,0,1,12.72-12.11A.1.1,0,0,0,283.74,464.29Z"/><path class="cls-6" d="M256.18,450.33c-6.31-.07-13.61,2.19-17.51,7.36-.15.2.13.41.32.32a87.34,87.34,0,0,1,17.3-6.9A.4.4,0,0,0,256.18,450.33Z"/><path class="cls-6" d="M261.06,452.21c-6.31-.06-13.61,2.19-17.52,7.36-.15.2.14.41.33.32a87.1,87.1,0,0,1,17.3-6.9A.4.4,0,0,0,261.06,452.21Z"/><path class="cls-6" d="M265.94,454.09c-6.31-.06-13.62,2.19-17.52,7.36-.15.2.14.42.32.32a87.43,87.43,0,0,1,17.31-6.9A.4.4,0,0,0,265.94,454.09Z"/><path class="cls-6" d="M270.81,456c-6.31-.06-13.61,2.19-17.51,7.36-.15.2.13.42.32.32a87.34,87.34,0,0,1,17.3-6.9A.4.4,0,0,0,270.81,456Z"/><path class="cls-6" d="M200.74,463c-7.08,0-7,11,.07,11S207.83,463,200.74,463Z"/><path class="cls-6" d="M262.94,433.47c-3.2-2.63-7.21,0-9.17,2.72a33.05,33.05,0,0,0-5.68,16.16c0,.13.09.18.2.18a.76.76,0,0,0,1.13.5c4.49-3.12,9.66-5.9,13.05-10.31C264.45,440.15,266,436,262.94,433.47Zm-7.69,13.44c-2.17,1.59-4.4,3.06-6.5,4.73a95,95,0,0,1,3.52-9.36,34.2,34.2,0,0,1,2.29-4.26c1.36-2.09,7.53-7.39,8.18-.53C263.1,441.28,257.83,445,255.25,446.91Z"/><path class="cls-6" d="M232.43,454.74c5.49.82,11.15-.76,16.55-1.62a.76.76,0,0,0,.46-1.15.16.16,0,0,0,0-.26A33.09,33.09,0,0,0,234.17,444c-3.32-.63-8,.28-8.49,4.4C225.22,452.3,229.22,454.26,232.43,454.74Zm-3.82-3.58c-4.29-5.39,3.83-5.86,6.26-5.3a35.25,35.25,0,0,1,4.6,1.49,99.49,99.49,0,0,1,9,4.3c-2.67.26-5.3.74-8,1.1C237.36,453.17,231,454.14,228.61,451.16Z"/><path class="cls-7" d="M89.16,156.19s73,124.17,74.94,132.89c3,13.4,18.93,145.7,18.93,145.7l76-1.37s-13.09-116.65-25.49-155.08c-8.93-27.68-73.35-119.48-73.35-119.48Z"/><path class="cls-6" d="M252.07,421.76c-10.91-.07-49.56-.51-64.08.84-.11,0-.1.2,0,.21,5,.72,53.17-.4,64.07-.75A.15.15,0,1,0,252.07,421.76Z"/><path class="cls-6" d="M101.62,167.58c4.78,7.51,9.83,14.85,14.72,22.29s9.77,14.89,14.58,22.38q14.42,22.45,28.17,45.33c4.31,7.14,8.42,14.35,11.38,22.13a135.14,135.14,0,0,1,6.4,23.84c1.49,8.15,2.47,16.38,3.4,24.61q1.47,13.14,2.93,26.28,3,26.88,6,53.78c.24,2.2.48,4.4.7,6.6,0,.32-.54.38-.58.06-2.24-17.81-4.09-35.68-6.12-53.52l-3-26.63c-.94-8.26-1.84-16.53-3.12-24.74a163.21,163.21,0,0,0-5.35-23.91,115,115,0,0,0-10.5-23.24c-8.8-15.18-18.11-30.1-27.43-45s-18.88-30-28.7-44.73c-1.22-1.82-2.44-3.63-3.7-5.42C101.28,167.57,101.52,167.44,101.62,167.58Z"/><path class="cls-3" d="M113.09,488.42c-3.47-.21-92.87-36.44-95.37-39.87a1.26,1.26,0,0,1-.13-.66c0-3.08,6.2-13.84,11.38-28,.32-.9,2.63-5.09,5.83-10.74,8.81-15.52,24.39-42.11,24.39-42.11l58.44,23.22-28,41.87L85.3,442.31s27.43,28.34,29.74,32.4S116.54,488.61,113.09,488.42Z"/><path class="cls-4" d="M113.09,488.42c-3.47-.21-92.87-36.44-95.37-39.87a1.26,1.26,0,0,1-.13-.66c0-3.08,6.2-13.84,11.38-28,.32-.9,2.63-5.09,5.83-10.74l54.85,23L85.3,442.31s27.43,28.34,29.74,32.4S116.54,488.61,113.09,488.42Z"/><path class="cls-5" d="M113.08,488.41c-3.46-.2-92.87-36.43-95.36-39.87C16.78,447.25,20.77,435,29,419.93L85.3,442.31s27.43,28.34,29.75,32.4S116.54,488.61,113.08,488.41Z"/><path class="cls-6" d="M113.23,484.42c-14.49-6.22-73.51-29.94-88.3-35-.12,0-.15,0,0,.09,14.23,6.48,73.44,29.72,88.24,35.14C113.44,484.77,113.53,484.55,113.23,484.42Z"/><path class="cls-6" d="M110.69,469.32a12.65,12.65,0,0,0-10.18.07,12.23,12.23,0,0,0-6.4,6.5c0,.09.13.15.18.07a14.63,14.63,0,0,1,16.33-6.46A.1.1,0,0,0,110.69,469.32Z"/><path class="cls-6" d="M90.39,446c-5.82-2.43-13.44-3.08-19,.25-.21.13,0,.44.18.42a87.24,87.24,0,0,1,18.63.09A.4.4,0,0,0,90.39,446Z"/><path class="cls-6" d="M94.21,449.61c-5.83-2.42-13.45-3.08-19,.26-.22.13,0,.43.18.41a86.6,86.6,0,0,1,18.63.1A.4.4,0,0,0,94.21,449.61Z"/><path class="cls-6" d="M98,453.19c-5.82-2.43-13.44-3.08-19,.25-.21.13,0,.43.18.41a87.24,87.24,0,0,1,18.63.1A.4.4,0,0,0,98,453.19Z"/><path class="cls-6" d="M101.83,456.76c-5.82-2.43-13.44-3.08-19,.25-.22.13,0,.44.18.42a87.25,87.25,0,0,1,18.63.09A.39.39,0,0,0,101.83,456.76Z"/><path class="cls-6" d="M34.22,437c-6.57-2.62-10.65,7.6-4.06,10.22S40.81,439.64,34.22,437Z"/><path class="cls-6" d="M103,433c-2-3.64-6.68-2.74-9.53-.92a33.21,33.21,0,0,0-11.32,12.84.17.17,0,0,0,.12.24c0,.47.31,1,.86.9,5.33-1.21,11.17-1.85,16-4.66C101.87,439.71,104.85,436.4,103,433Zm-12.17,9.57c-2.61.66-5.23,1.19-7.81,1.94,2.22-2.49,4.31-5.08,6.78-7.35A35.23,35.23,0,0,1,93.5,434c2-1.43,9.76-4,7.79,2.58C100.2,440.25,93.91,441.73,90.81,442.52Z"/><path class="cls-6" d="M66.71,441.22c4.79,2.82,10.63,3.48,16,4.71a.78.78,0,0,0,.87-.89c.1,0,.17-.12.11-.24a33,33,0,0,0-11.28-12.88c-2.84-1.83-7.54-2.75-9.53.89C61,436.25,63.92,439.57,66.71,441.22Zm-2.2-4.75c-2-6.61,5.75-4,7.8-2.57A35.52,35.52,0,0,1,76,437a97.89,97.89,0,0,1,6.75,7.37c-2.57-.76-5.19-1.3-7.79-2C71.87,441.62,65.59,440.11,64.51,436.47Z"/><path class="cls-7" d="M94.16,429.83,28.75,403.41s81.11-119.25,81.71-128.13C111,267.42,75.36,199,74,179.06c-1.52-21.52,8.85-38.17,20.23-48.51l67.49,28.68s-7.13,11.4-18.35,17.74c0,0,34.61,79.09,32.65,103.4S94.16,429.83,94.16,429.83Z"/><path class="cls-6" d="M97.07,417.39c-9.46-4.07-6.69-3-16.19-7C76.23,408.45,45.65,395.74,41,394.7c-.1,0-.17.14-.08.19,4.07,2.49,34.87,14.67,39.56,16.52C90,415.19,87.34,414,97,417.67A.15.15,0,0,0,97.07,417.39Z"/><path class="cls-6" d="M154.44,175.52a128,128,0,0,0-20.55,6.67.22.22,0,0,0,.14.41c6.9-2,13.91-3.9,20.69-6.28C155.25,176.14,155,175.41,154.44,175.52Z"/><path class="cls-6" d="M146.44,172.75a30.71,30.71,0,0,0-1.74,3.61,8.24,8.24,0,0,0-.88,3c0,.21.27.25.4.13a10.69,10.69,0,0,0,1.69-2.86c.58-1.11,1.18-2.21,1.72-3.34C148,172.57,146.85,172,146.44,172.75Z"/><path class="cls-6" d="M147.26,166.4c.41-1,.83-2.07,1.26-3.1s1-2.12,1.35-3.21c.06-.18.33-.06.26.11-.41,1-.68,2.15-1,3.22s-.68,2.14-1,3.21c-.66,2-1.47,4-2.32,5.87a7.3,7.3,0,0,0,3.24-.56,5.76,5.76,0,0,0,2.28-2.75c.6-1.16,1.15-2.35,1.76-3.5a23.77,23.77,0,0,0,1.87-3.91c.06-.18.33-.06.26.11a45,45,0,0,1-3.59,8.33c-.62,1-1.13,2.1-2.27,2.5a9.43,9.43,0,0,1-3.85.26c-.16.05-.36-.06-.31-.25C145.76,170.61,146.44,168.45,147.26,166.4Z"/><path class="cls-6" d="M144.39,179.55c2.39,5.08,4.5,10.15,6.75,15.21s4.24,10,6.23,15c4,10.17,7.63,20.53,10.79,31q2.35,7.77,4.31,15.65a113.34,113.34,0,0,1,3.12,16,42.17,42.17,0,0,1-1.35,16,92.61,92.61,0,0,1-6,14.95c-1.46,3-2,2.63-1.26,1.1,2-4.36,7.29-17.57,6.91-28.68a83.34,83.34,0,0,0-2.5-15.84c-1.23-5.32-2.63-10.59-4.15-15.84-3-10.32-6.56-20.44-10.22-30.54-2.05-5.67-4.25-11.27-6.34-16.92s-4.26-10.81-6.58-17A.13.13,0,1,1,144.39,179.55Z"/><path class="cls-6" d="M94.72,162.75c1.17-.43,2.8.29,4,.49a35.92,35.92,0,0,0,4.64.46,35.36,35.36,0,0,0,4.6-.15,9.92,9.92,0,0,0,4.4-1.17c2.23-1.39,4.1-3.84,5.61-6a34.19,34.19,0,0,0,4.38-7.68c.06-.17.3-.06.24.11-.49,1.57-.85,3.15-1.48,4.68a29.71,29.71,0,0,1-2.16,4.15c-1.51,2.48-3.24,5.13-5.83,6.61s-6.21,1.46-9.23,1.28a35.06,35.06,0,0,1-5.21-.69c-1.24-.26-3.33-.46-4.12-1.55A.39.39,0,0,1,94.72,162.75Z"/><path class="cls-6" d="M47.42,391q16.14-24.42,31.67-49.2t30.64-50c2.41-4,5.19-8,6.74-12.46,1.68-4.83.72-9.51-.8-14.24a241.72,241.72,0,0,0-10-25.39c-3.78-8.31-7.84-16.49-11.83-24.7s-8.18-16.3-11.19-24.86c-2.87-8.17-4-16.65-1.76-25.12s6.92-16,11.85-23c1.31-1.86,2.63-3.7,3.94-5.56.1-.14.32,0,.21.17-5.44,7.35-10.75,15.13-13.94,23.75a41.05,41.05,0,0,0-2.7,13.31,43.06,43.06,0,0,0,2.13,13.6c2.64,8.56,6.82,16.66,10.71,24.7,4,8.21,8.07,16.38,11.91,24.67a262.58,262.58,0,0,1,10.44,25.49c1.32,3.88,2.79,7.93,2.71,12.08-.1,4.54-2.27,8.64-4.52,12.47-9.78,16.68-19.94,33.16-30.22,49.54s-20.84,32.75-31.53,49l-4.05,6.12C47.62,391.5,47.26,391.2,47.42,391Z"/><path class="cls-3" d="M165.42,83.39c6.09,13.37,36.86,31.79,51.27,33.77,10.37,1.42,41.85,1.91,52.65.27,12.64-1.94,3-36.07-4.49-35.2-20.55,2.4-38,5.08-43.48,5.08-6.69,0-42.94-11.64-47.3-13.27C163.38,70,162,75.8,165.42,83.39Z"/><path class="cls-8" d="M165.61,86.93C173.32,98.34,199,117,199,117l3.56-7.88,11.77-26.06s-23.54-7.42-39-10.73a33.73,33.73,0,0,0-5.54-.79C159.82,71,159,77.11,165.61,86.93Z"/><path class="cls-6" d="M165.61,86.93C173.32,98.34,199,117,199,117l3.56-7.88C193,98,178.2,81.2,169.71,71.53,159.82,71,159,77.11,165.61,86.93Z"/><path class="cls-6" d="M194.34,111.72c1.95-4.78,10.65-24.11,12.81-28.16.15-.28.37-.26.25,0-5.51,14.48-10.72,23.58-12.87,28.18C194.47,111.91,194.29,111.85,194.34,111.72Z"/><path class="cls-3" d="M261.08,82.61c12.5-1.64,28-4.45,41.07,1.11a7.09,7.09,0,0,1,3.5,3c5.91,2.39,6.56,5.9,6.56,5.9,4.83,3.91,5,7.59,5,7.59s6.91,2.88,5.86,7.34c-1.16,5-10.64,0-17.54.42-15.82,1-38,6.79-42.57,7.52Z"/><path class="cls-6" d="M288.23,97.35a102.35,102.35,0,0,1,13.9-.07,102.17,102.17,0,0,1,14.92,3,.12.12,0,1,0,.08-.23,53.91,53.91,0,0,0-28.91-2.93C288,97.18,288,97.36,288.23,97.35Z"/><path class="cls-6" d="M286.25,87.89c4.55.06,12.54.22,25.91,4.88,0,0,.08,0,0-.08a48.4,48.4,0,0,0-25.94-5C286,87.69,286,87.88,286.25,87.89Z"/><path class="cls-6" d="M285.29,82.78c7.72.4,12.54,1.63,20.32,4,0,0,.07-.06,0-.08-8.56-3.58-12.06-3.91-20.38-4.15C285,82.51,285,82.77,285.29,82.78Z"/><path class="cls-3" d="M286.54,110.36c-2,.94-1.53,2,2.32,2.9s19.81,1.15,19.25,6.71-23.09,4.87-29.38,2.9S263,115.5,263,115.5C267.37,114.76,277.9,111.93,286.54,110.36Z"/><rect class="cls-1" x="292.81" y="80.38" width="157.28" height="138.44"/><g class="cls-9"><g class="cls-10"><rect class="cls-1" x="292.81" y="80.38" width="157.28" height="138.44"/></g></g><rect class="cls-11" x="259.52" y="80.38" width="157.28" height="138.44"/><path class="cls-2" d="M476,265.42c-5-8.57-25.89-46.6-25.89-46.6h-33.3l17.14,46.6Z"/><g class="cls-12"><g class="cls-10"><path class="cls-2" d="M476,265.42c-5-8.57-25.89-46.6-25.89-46.6h-33.3l17.14,46.6Z"/></g></g><path class="cls-2" d="M233.51,265.42c5-8.57,25.9-46.6,25.9-46.6H292.7l-17.13,46.6Z"/><polygon class="cls-13" points="259.41 218.82 244.93 265.42 409.18 265.42 416.79 218.82 259.41 218.82"/><g class="cls-14"><path class="cls-4" d="M470.33,177.72a.89.89,0,0,1-.89-.89V130.48a.89.89,0,1,1,1.78,0v46.35A.89.89,0,0,1,470.33,177.72Z"/><path class="cls-4" d="M480.37,189a.89.89,0,0,1-.89-.89V150.52a.89.89,0,1,1,1.78,0V188.1A.89.89,0,0,1,480.37,189Z"/><path class="cls-4" d="M240.23,232.06a.89.89,0,0,1-.89-.89V202.36a.89.89,0,1,1,1.77,0v28.81A.88.88,0,0,1,240.23,232.06Z"/><path class="cls-4" d="M229.48,244.08a.89.89,0,0,1-.89-.89V220.64a.89.89,0,1,1,1.78,0v22.55A.89.89,0,0,1,229.48,244.08Z"/></g><path class="cls-6" d="M182.15,104.7a72.41,72.41,0,0,1-.67,7.28c0-.09.07-.18.11-.26.46-1.27.92-2.57,1.49-3.79a.07.07,0,0,1,.13,0,21.7,21.7,0,0,1-1.22,3.92c-.24.59-.49,1.19-.75,1.78-.17,1.08-.37,2.16-.59,3.22-.41,2-2.31,10.57-2.74,12-.1.31-.46.24-.44-.1.11-1.58,1.7-10.49,2-12.51a109.71,109.71,0,0,1,2.5-11.62C182,104.57,182.16,104.62,182.15,104.7Z"/><path class="cls-8" d="M167.48,168.67c-3.75,1.94-8.59,4.94-30.4.64-1.36-.27-2.74-.61-4.11-1-20.45-6.14-45-30.19-46.37-31.89,0,0,32.49-52.67,74-69.23,5.14-2,13.64,1.9,18.35,6.81,1.68,1.76,5.33,14.68,3.93,25.15S171.26,166.76,167.48,168.67Z"/><path class="cls-4" d="M164.58,98.65a17.35,17.35,0,0,1-.91,6.56,16,16,0,0,1,.14-3.32A16.77,16.77,0,0,1,164.58,98.65Z"/><path class="cls-4" d="M150.42,134.52a16.07,16.07,0,0,1-.15,3.33,15.33,15.33,0,0,1-.77,3.23,16,16,0,0,1,.15-3.32A15.42,15.42,0,0,1,150.42,134.52Z"/><path class="cls-4" d="M126.33,107.41a17.44,17.44,0,0,1-.91,6.57,18,18,0,0,1,.91-6.57Z"/><path class="cls-4" d="M173.86,132.7a17.9,17.9,0,0,1-.91,6.56,16,16,0,0,1,.14-3.32A16.77,16.77,0,0,1,173.86,132.7Z"/><path class="cls-4" d="M142.94,102.76a15.94,15.94,0,0,1,3.32.15,15.42,15.42,0,0,1,3.24.77,17.71,17.71,0,0,1-6.56-.92Z"/><path class="cls-4" d="M115.61,128.68a15.94,15.94,0,0,1,3.32.14,16.6,16.6,0,0,1,3.24.77,15.94,15.94,0,0,1-3.32-.14A16.77,16.77,0,0,1,115.61,128.68Z"/><path class="cls-4" d="M147.76,156.73a15.94,15.94,0,0,1,3.32.14,15.27,15.27,0,0,1,3.24.77,18,18,0,0,1-6.56-.91Z"/><path class="cls-4" d="M107.19,146.54a17.43,17.43,0,0,1,6.56.91,17.9,17.9,0,0,1-6.56-.91Z"/><path class="cls-4" d="M164.38,73.44a16,16,0,0,1,3.32.15,15.42,15.42,0,0,1,3.24.77,16.07,16.07,0,0,1-3.33-.15A15.19,15.19,0,0,1,164.38,73.44Z"/><path class="cls-4" d="M156.43,82.42a17.38,17.38,0,0,1-5.28,4,17.81,17.81,0,0,1,5.28-4Z"/><path class="cls-4" d="M113.1,107.93a15.76,15.76,0,0,1-2.46,2.24,15.39,15.39,0,0,1-2.83,1.75,17.26,17.26,0,0,1,5.29-4Z"/><path class="cls-4" d="M167.2,119.45a17.26,17.26,0,0,1-5.29,4,17.58,17.58,0,0,1,5.29-4Z"/><path class="cls-4" d="M132.16,141.51a17.38,17.38,0,0,1-5.28,4,17.81,17.81,0,0,1,5.28-4Z"/><path class="cls-4" d="M180.62,89.3a17.81,17.81,0,0,1-5.28,4A16.27,16.27,0,0,1,177.79,91,16.66,16.66,0,0,1,180.62,89.3Z"/><path class="cls-4" d="M179.89,114.87a17.38,17.38,0,0,1-4-5.28,17.81,17.81,0,0,1,4,5.28Z"/><path class="cls-4" d="M101.8,132.48a17.38,17.38,0,0,1-4-5.28,17.81,17.81,0,0,1,4,5.28Z"/><path class="cls-4" d="M170.4,153.45a16.34,16.34,0,0,1-2.25-2.46,15.91,15.91,0,0,1-1.74-2.83,15.76,15.76,0,0,1,2.24,2.46A15.39,15.39,0,0,1,170.4,153.45Z"/><path class="cls-4" d="M136,93.71a16.34,16.34,0,0,1-2.25-2.46A15.91,15.91,0,0,1,132,88.42a15.76,15.76,0,0,1,2.24,2.46A15.39,15.39,0,0,1,136,93.71Z"/><path class="cls-4" d="M136.63,165.38a16.34,16.34,0,0,1-2.25-2.46,15.39,15.39,0,0,1-1.75-2.83,15.29,15.29,0,0,1,2.25,2.45A15.81,15.81,0,0,1,136.63,165.38Z"/><path class="cls-4" d="M142.47,123.1a17.69,17.69,0,0,1-4-5.29,17.58,17.58,0,0,1,4,5.29Z"/><path class="cls-3" d="M171.35,88c-5.29-1-10.29-11.94-10.91-19.32,0-.5,2.48-4.52,5.31-9.54,1.7-3.06,3.53-6.5,5-9.76.29-.67,2,1.57,2,1.57l3.77,2.88L189,63.39A56.68,56.68,0,0,0,181.47,75a7.84,7.84,0,0,0-.45,1.4,1.83,1.83,0,0,1-.07.23C180.24,79.4,176.47,89,171.35,88Z"/><path class="cls-6" d="M181,76.44a1.83,1.83,0,0,1-.07.23,13.54,13.54,0,0,1-2.15-.82c-13.64-6.39-7.62-24.66-7.62-24.66l5.34,2.64L189,63.39A56.68,56.68,0,0,0,181.47,75,7.84,7.84,0,0,0,181,76.44Z"/><path class="cls-15" d="M203.28,24.44s6.23,4,6.27,11-2.76,13.92-3.41,14.17S203.28,24.44,203.28,24.44Z"/><path class="cls-3" d="M172.36,28.09c-3.75,7.4-3.56,30.68,1.12,36.68,6.78,8.7,19.85,11.7,27.73,3.1,7.65-8.34,6.86-38.68,1.45-44.33C194.7,15.21,177.89,17.17,172.36,28.09Z"/><path class="cls-16" d="M173,64.46h0"/><path class="cls-6" d="M192.23,46.75c0-.06-.12.08-.12.14.09,1.59-.08,3.42-1.51,4,0,0,0,.09,0,.09C192.37,50.67,192.56,48.24,192.23,46.75Z"/><path class="cls-6" d="M190.77,45.12c-2.55-.13-2.64,5-.27,5.12S192.92,45.24,190.77,45.12Z"/><path class="cls-6" d="M200.91,46.69c0-.06.12.08.12.14-.07,1.59.11,3.42,1.53,4,.05,0,0,.09,0,.08C200.8,50.61,200.58,48.18,200.91,46.69Z"/><path class="cls-6" d="M202.35,45.05c2.56-.15,2.68,5,.31,5.11S200.21,45.18,202.35,45.05Z"/><path class="cls-6" d="M189.17,41.22a19.32,19.32,0,0,0,2-.66,3.45,3.45,0,0,0,1.91-1.07,1.09,1.09,0,0,0-.16-1.32,2.69,2.69,0,0,0-2.7-.32,4,4,0,0,0-2.3,1.67A1.16,1.16,0,0,0,189.17,41.22Z"/><path class="cls-6" d="M204.13,43.49a18,18,0,0,1-2-.56,3.44,3.44,0,0,1-2-1,1.08,1.08,0,0,1,.09-1.32,2.69,2.69,0,0,1,2.68-.47,4,4,0,0,1,2.39,1.55A1.16,1.16,0,0,1,204.13,43.49Z"/><path class="cls-6" d="M188.61,61.78c.38.38.75.9,1.32,1a4.43,4.43,0,0,0,1.72-.37.05.05,0,0,1,.06.08,2.13,2.13,0,0,1-2,.83,1.7,1.7,0,0,1-1.23-1.43C188.44,61.76,188.56,61.73,188.61,61.78Z"/><path class="cls-6" d="M197.83,55s.07,2.37-.05,3.48a23,23,0,0,0-6.48.23c-.5.11-.45-.3.13-.56a9.45,9.45,0,0,1,5.5-.74c.12-.29-.17-3.65,0-3.64a9.32,9.32,0,0,1,2.44.84c0-5-.78-9.87-.71-14.8a.15.15,0,0,1,.3,0c1.19,5.09,1.31,10.79,1.44,15.91C200.43,56.31,198.25,55.24,197.83,55Z"/><path class="cls-6" d="M194.67,57.63s-1.11,2.79-3,3.54c-2.13.86-2.86-1.07-.69-2.77C192.16,57.51,194.67,57.63,194.67,57.63Z"/><path class="cls-17" d="M192.45,60.73a3,3,0,0,1-.75.44c-1.95.79-2.73-.78-1.15-2.35C191.62,58.9,192.79,59.3,192.45,60.73Z"/><path class="cls-15" d="M171.28,48c2.58.79,5.54-6.94,6.37-9.92.74-2.62,1.59-10.94,1.72-11.51s11.22,7.36,17.7,5.47S207.89,24.33,208,21.62s-8-9.62-14.93-10-16.4,8.5-16.4,8.5,3.2-3.82,3.09-4.14-4.61,1.49-5.44,4.7c0,0,.9-4,.55-4.11s-3.83,3.38-3,6c0,0-4.05,3.51-4.43,7.35S168.26,47.09,171.28,48Z"/><path class="cls-15" d="M201.68,30.69a21.73,21.73,0,0,1-6.13,2.2,14.61,14.61,0,0,1-7-1.13,21.73,21.73,0,0,1-6.13-3.63c-1.62-1.33-3.06-2.94-4.79-4.13-.44-.3-.94.32-.67.72a23.35,23.35,0,0,0,11.76,8.67,13.39,13.39,0,0,0,13-2.65S201.71,30.68,201.68,30.69Z"/><path class="cls-3" d="M174,47.32s-4-8.1-7.6-6.79S165,53.05,168.67,55.1a4,4,0,0,0,5.64-1.31Z"/><path class="cls-6" d="M167.09,43.73c-.06,0-.08.07,0,.1,2.56,1.53,3.61,4.28,4.22,7.07-.66-1.14-1.68-1.87-3.19-1.11-.08,0,0,.17,0,.16a2.47,2.47,0,0,1,2.56,1.27,11.4,11.4,0,0,1,1,2.37c.09.26.55.2.5-.1,0,0,0,0,0-.07C172.74,50,170.78,44.65,167.09,43.73Z"/><path class="cls-3" d="M147.59,83.51c-2.75,15.94,14.46,69.66,25.54,79.69,16.48,14.92,47,24.74,58,27.93,4.81,1.39,18.13-32.47,13.26-34.7C234,151.65,201.56,141.55,198.51,139s-21.67-29.37-29.94-44.82C157.47,73.4,149,75.45,147.59,83.51Z"/><path class="cls-3" d="M236.18,153.45s14.37,3.66,23.65,6.5c5.18,1.58,13.82,5.08,17.09,8,4.9,4.34,22.6,25.63,17.53,30-4.58,4-17.47-16.23-17.47-16.23s14.81,19.25,8.4,23-17.93-21-17.93-21,14.77,20.12,7.55,23c-5.46,2.16-17.17-19.7-17.17-19.7s12.58,17.38,7.06,19.85c-6.1,2.72-18.16-16.78-18.16-16.78-15.09,3.89-23.86-.42-29.74-4.23C215.57,185,236.18,153.45,236.18,153.45Z"/><path class="cls-6" d="M272.28,174.75c1.82,2.2,3.68,4.41,5.3,6.76s3.16,4.77,4.55,7.26a48.22,48.22,0,0,1,4.5,10.22c-2.42-6.19-8.09-14.7-9.71-17.05s-3.11-4.78-4.73-7.13C272.15,174.75,272.24,174.7,272.28,174.75Z"/><path class="cls-6" d="M263.68,180.44c3.12,2.48,9.67,11.69,12.2,17.86.1.26,0,.24-.19,0-2-3.05-10-14.87-12.08-17.81C263.57,180.44,263.64,180.41,263.68,180.44Z"/><path class="cls-6" d="M255.42,184a43.78,43.78,0,0,1,9,14.11c.11.25-.09.21-.24,0-2.92-4.74-5.17-8.49-8.94-14A.1.1,0,0,1,255.42,184Z"/><path class="cls-8" d="M163.25,84.69C150.4,66.51,142.72,73.25,145.3,93c2.41,18.44,8.87,40.42,8.87,40.42l32.43-15.71S171.47,96.32,163.25,84.69Z"/><path class="cls-4" d="M171.1,91.83a17.33,17.33,0,0,1,1.13,6.53,17.87,17.87,0,0,1-1.13-6.53Z"/><path class="cls-4" d="M151.92,102.88a17.32,17.32,0,0,1,6.52-1.13,17.86,17.86,0,0,1-6.52,1.13Z"/><path class="cls-4" d="M152.75,74.62a15.55,15.55,0,0,1-1.65,2.89A15.71,15.71,0,0,1,148.94,80a15.23,15.23,0,0,1,1.65-2.89A15.71,15.71,0,0,1,152.75,74.62Z"/><path class="cls-4" d="M180.11,111.37a15.46,15.46,0,0,1-1.65,2.88,15.71,15.71,0,0,1-2.16,2.53,15.55,15.55,0,0,1,1.65-2.89A16.09,16.09,0,0,1,180.11,111.37Z"/><path class="cls-4" d="M157.68,122.39a16.76,16.76,0,0,1-2.89-1.65,15.78,15.78,0,0,1-2.53-2.17,15.83,15.83,0,0,1,2.89,1.66A15.23,15.23,0,0,1,157.68,122.39Z"/><path class="cls-6" d="M167.56,90.16c1.72,2.37,3.51,4.7,5.29,7-.45-1.18-.84-2.37-1.19-3.59a0,0,0,0,1,.09,0c.36.94.76,1.86,1.1,2.8l.51,1.35c0,.09.08.19.11.28,1.39,1.82,2.77,3.65,4.1,5.5,1.6,2.22,3.13,4.48,4.68,6.73s3.1,5,4.79,7.31c.14.19-2.87,1.41-3.15,1.57s-.49-.12-.18-.22,2.67-1.55,2.7-1.58c-1.54-2.27-3.33-4.36-4.95-6.58s-3.22-4.41-4.78-6.66c-3.17-4.55-6.07-9.28-9.22-13.85C167.42,90.16,167.52,90.1,167.56,90.16Z"/><path class="cls-6" d="M146.1,106c.49,1,1,1.91,1.46,2.9l.53,1.23q-1.09-5.28-2.18-10.55s.05-.06.07,0c1.48,5.69,3,11.38,4.36,17.11,1.32,5.45,2.91,11,3.66,16.54a19.81,19.81,0,0,1,3-1,14.52,14.52,0,0,1-3.34,1.62c-1.83-5.44-3-11.62-4.22-17.22-.35-1.57-.68-3.15-1-4.73-.36-1-.81-1.87-1.24-2.79s-.82-2-1.22-3C146,106,146.07,106,146.1,106Z"/><path class="cls-6" d="M154.69,128c4.5-2.54,23.32-12.28,27.53-14.11.29-.13.45,0,.16.19-13.31,7.93-23,11.82-27.58,14.09C154.68,128.2,154.57,128,154.69,128Z"/><g class="cls-18"><path class="cls-4" d="M291.62,320.31a8.61,8.61,0,0,1-3.77-3.18,11.17,11.17,0,0,1-1.73-5.14l-.75-7.7a11,11,0,0,1,.7-5.38,8.6,8.6,0,0,1,3.07-3.84,11.1,11.1,0,0,1,10.21-1,8.63,8.63,0,0,1,3.76,3.17,11.1,11.1,0,0,1,1.73,5.14l.75,7.7a11,11,0,0,1-.69,5.38,8.71,8.71,0,0,1-3.08,3.85,11.16,11.16,0,0,1-10.2,1Zm7.42-4.62a4.68,4.68,0,0,0,1.62-2.09,6.27,6.27,0,0,0,.35-2.94l-.78-8a6.19,6.19,0,0,0-.92-2.8,4.52,4.52,0,0,0-2-1.74,5.34,5.34,0,0,0-2.76-.41,5.43,5.43,0,0,0-2.64.94,4.54,4.54,0,0,0-1.61,2.09,6.23,6.23,0,0,0-.36,2.93l.78,8a6.36,6.36,0,0,0,.92,2.81,4.64,4.64,0,0,0,2,1.74,5.84,5.84,0,0,0,5.4-.53Z"/><path class="cls-4" d="M315.57,318a8.59,8.59,0,0,1-3.76-3.18,10.91,10.91,0,0,1-1.73-5.14l-.76-7.69a11.16,11.16,0,0,1,.7-5.39,8.62,8.62,0,0,1,3.08-3.84,11.08,11.08,0,0,1,10.2-1,8.58,8.58,0,0,1,3.76,3.17,11,11,0,0,1,1.73,5.15l.76,7.69a11.1,11.1,0,0,1-.7,5.38,8.64,8.64,0,0,1-3.08,3.85,11.15,11.15,0,0,1-10.2,1Zm7.43-4.62a4.59,4.59,0,0,0,1.61-2.09,6.39,6.39,0,0,0,.36-2.94l-.79-7.95a6.23,6.23,0,0,0-.91-2.81,4.57,4.57,0,0,0-2-1.74,5.76,5.76,0,0,0-5.4.53,4.49,4.49,0,0,0-1.62,2.09,6.23,6.23,0,0,0-.35,2.93l.78,8a6.11,6.11,0,0,0,.92,2.81,4.53,4.53,0,0,0,2,1.74,5.24,5.24,0,0,0,2.76.4A5.42,5.42,0,0,0,323,313.34Z"/><path class="cls-4" d="M333.26,289.77l4.46-.44,2.67,27.17-4.47.44Zm3.36,12.14,8.69-.85a3.59,3.59,0,0,0,1.84-.68,3.49,3.49,0,0,0,1.14-1.54,4.74,4.74,0,0,0,.25-2.16,4.81,4.81,0,0,0-.66-2.08,3.38,3.38,0,0,0-1.41-1.3,3.62,3.62,0,0,0-2-.32l-8.68.86-.42-4.28,8.55-.84a9,9,0,0,1,4.48.61,7.38,7.38,0,0,1,3.22,2.63,8.92,8.92,0,0,1,1.47,4.27,8.73,8.73,0,0,1-.62,4.47,7.21,7.21,0,0,1-2.64,3.19,9,9,0,0,1-4.28,1.46l-8.55.84Z"/><path class="cls-4" d="M364,314.09a15.72,15.72,0,0,1-3.49-.8,13.27,13.27,0,0,1-3.07-1.57l2-3.8a11,11,0,0,0,3.72,1.66,12.55,12.55,0,0,0,4.21.28,7.8,7.8,0,0,0,4.13-1.39,3.12,3.12,0,0,0,1.24-2.89v0a2.89,2.89,0,0,0-.87-1.93,4.05,4.05,0,0,0-1.87-.91,22.12,22.12,0,0,0-2.84-.37H367a.4.4,0,0,1-.11,0l-.34,0a27.91,27.91,0,0,1-4.59-.62,6.55,6.55,0,0,1-3.21-1.92,7.22,7.22,0,0,1-1.67-4.38v0a8.14,8.14,0,0,1,.72-4.52,7.35,7.35,0,0,1,3.09-3.11,13.55,13.55,0,0,1,5.22-1.48,13.88,13.88,0,0,1,2.95,0,15.55,15.55,0,0,1,3,.68,15.13,15.13,0,0,1,2.89,1.29l-1.8,3.89a13.3,13.3,0,0,0-3.36-1.39,9.55,9.55,0,0,0-3.24-.27,7.14,7.14,0,0,0-3.89,1.34,3,3,0,0,0-1.15,2.8v0a2.8,2.8,0,0,0,.93,2,4.28,4.28,0,0,0,1.93.91c.75.16,1.79.3,3.12.44h.15l.14,0H368l.21,0a22.57,22.57,0,0,1,4.33.8,6.73,6.73,0,0,1,3.05,2,7.13,7.13,0,0,1,1.56,4.17v0a7.81,7.81,0,0,1-.77,4.47,7.47,7.47,0,0,1-3.21,3.1,14.34,14.34,0,0,1-5.4,1.48A18.54,18.54,0,0,1,364,314.09Z"/><path class="cls-4" d="M380.05,285.18l4.44-.43,1.93,19.63-4.45.44Zm2.16,22.62,4.56-.45.44,4.56-4.56.45Z"/></g><g class="cls-19"><path class="cls-4" d="M303.74,351l1.77.23,8.11,17.36L313,368l2.1-15.47,1.75.24-2.4,17.7-1.79-.24-8.3-17.51.85.83-2.09,15.38-1.75-.24Z"/><path class="cls-4" d="M320.66,370.85a4.29,4.29,0,0,1-1.53-2.13,6.63,6.63,0,0,1-.21-3.06l.28-2.06a6.47,6.47,0,0,1,1-2.85,4.34,4.34,0,0,1,2-1.63,5.83,5.83,0,0,1,2.9-.25,6,6,0,0,1,2.73,1,4.25,4.25,0,0,1,1.53,2.11,6.45,6.45,0,0,1,.21,3l-.28,2.1a6.6,6.6,0,0,1-1,2.86,4.23,4.23,0,0,1-2,1.63,6.54,6.54,0,0,1-5.62-.76Zm5.63-1.27a4,4,0,0,0,1.29-2.7l.29-2.1a4.08,4.08,0,0,0-.53-2.94,3.82,3.82,0,0,0-5.11-.69,4.08,4.08,0,0,0-1.28,2.69l-.28,2.1a4.11,4.11,0,0,0,.51,2.95,3.78,3.78,0,0,0,5.11.69Z"/><path class="cls-4" d="M341.5,356.11l1.75.24-2.4,17.71-1.76-.24Zm-.5,16.31,4,.54a5.2,5.2,0,0,0,3.84-.65,4.56,4.56,0,0,0,1.7-3.29l.71-5.22a4.55,4.55,0,0,0-.76-3.63,5.23,5.23,0,0,0-3.53-1.65l-4-.55.22-1.63,3.93.54a8.91,8.91,0,0,1,3.66,1.21,4.74,4.74,0,0,1,2,2.42,7.7,7.7,0,0,1,.26,3.63l-.69,5a7.56,7.56,0,0,1-1.22,3.42,4.85,4.85,0,0,1-2.54,1.81,8.83,8.83,0,0,1-3.84.19l-3.93-.53Z"/><path class="cls-4" d="M355.94,375.26a3.6,3.6,0,0,1-.82-3.06,3.51,3.51,0,0,1,1.49-2.61,4.63,4.63,0,0,1,3.28-.56l4.2.57,0,1.66-4.36-.59a3,3,0,0,0-2,.29,2.16,2.16,0,0,0-.27,3.26,4.18,4.18,0,0,0,2.28.91,7.89,7.89,0,0,0,2.58,0c.63-.14,1-.4,1-.8l0,1.69a3.21,3.21,0,0,1-1.06.54,5.45,5.45,0,0,1-1.41.25,8.55,8.55,0,0,1-1.66-.07A5.26,5.26,0,0,1,355.94,375.26Zm8.11-6.21a3.3,3.3,0,0,0-.49-2.49,3.12,3.12,0,0,0-2.22-1.16,5.51,5.51,0,0,0-1.81.05,5,5,0,0,0-1.64.62L356.73,365a4.73,4.73,0,0,1,2.07-1.09,7,7,0,0,1,2.68-.13,6.07,6.07,0,0,1,2.62.92,4,4,0,0,1,1.48,1.84,5.1,5.1,0,0,1,.24,2.62l-1.1,8.12-1.75-.23Z"/><path class="cls-4" d="M369.24,365l5.7.78-.21,1.51-5.7-.78Zm.4,12.13a3.82,3.82,0,0,1-.37-2.6l1.77-13,1.75.24L371,374.84a1.9,1.9,0,0,0,.2,1.3,1.36,1.36,0,0,0,1,.59l1.19.16-.22,1.63-1.44-.19A2.81,2.81,0,0,1,369.64,377.17Z"/><path class="cls-4" d="M377.35,378.17a3.6,3.6,0,0,1-.82-3.06,3.55,3.55,0,0,1,1.49-2.62,4.68,4.68,0,0,1,3.28-.55l4.2.57-.05,1.66-4.36-.59a2.85,2.85,0,0,0-2,.29,1.94,1.94,0,0,0-.87,1.48,1.91,1.91,0,0,0,.61,1.77,4.07,4.07,0,0,0,2.27.92,7.89,7.89,0,0,0,2.58,0c.63-.14,1-.41,1-.8l0,1.69a3.64,3.64,0,0,1-1.06.54,5.45,5.45,0,0,1-1.41.25,9.46,9.46,0,0,1-1.66-.07A5.31,5.31,0,0,1,377.35,378.17Zm8.12-6.21a3.35,3.35,0,0,0-.5-2.49,3.1,3.1,0,0,0-2.22-1.16,5.25,5.25,0,0,0-1.81.05,4.77,4.77,0,0,0-1.64.62l-1.16-1.05a4.73,4.73,0,0,1,2.07-1.09,6.8,6.8,0,0,1,2.68-.13,6.07,6.07,0,0,1,2.62.92,3.85,3.85,0,0,1,1.48,1.84,5.1,5.1,0,0,1,.24,2.62l-1.1,8.12-1.75-.23Z"/></g><g class="cls-19"><path class="cls-4" d="M354.88,397.09l1.76-.17,1.74,17.78-1.76.18Zm1.22-.12,10-1,.16,1.64-10,1Zm.81,8.29,8.63-.84.16,1.64-8.62.84Z"/><path class="cls-4" d="M372.38,412.86a4.31,4.31,0,0,1-2-1.71,6.84,6.84,0,0,1-.91-2.93l-.2-2.07a6.57,6.57,0,0,1,.33-3,4.21,4.21,0,0,1,1.61-2.05,6.59,6.59,0,0,1,5.65-.56,4.33,4.33,0,0,1,2,1.7,6.4,6.4,0,0,1,.91,2.89l.21,2.11a6.61,6.61,0,0,1-.33,3,4.33,4.33,0,0,1-1.61,2.06,6.54,6.54,0,0,1-5.65.55Zm5.19-2.53a4.11,4.11,0,0,0,.64-2.93l-.21-2.1a4.09,4.09,0,0,0-1.19-2.74,3.81,3.81,0,0,0-5.13.5,4.09,4.09,0,0,0-.63,2.92l.21,2.1a4.14,4.14,0,0,0,1.18,2.76,3.33,3.33,0,0,0,2.66.76A3.28,3.28,0,0,0,377.57,410.33Z"/><path class="cls-4" d="M385,407.07a3.71,3.71,0,0,0,1.12,2.51,3.22,3.22,0,0,0,2.55.68,3.33,3.33,0,0,0,2.36-1.08,3.2,3.2,0,0,0,.63-2.47l.43,2.64a3.82,3.82,0,0,1-1.38,1.73,5.11,5.11,0,0,1-2.57.89,4.05,4.05,0,0,1-3.38-1,5.77,5.77,0,0,1-1.52-3.7l-.76-7.72,1.76-.17Zm5.88-8.37,1.74-.17,1.25,12.69-1.75.18Z"/><path class="cls-4" d="M396.42,398.16l1.76-.18,1.24,12.7-1.76.17Zm8.93,4.17a3.67,3.67,0,0,0-1.14-2.53,3.93,3.93,0,0,0-4.94.38,3.08,3.08,0,0,0-.64,2.43l-.5-2.43a4.18,4.18,0,0,1,1.61-2,5.73,5.73,0,0,1,2.53-.82,4,4,0,0,1,3.33,1,5.8,5.8,0,0,1,1.51,3.72l.75,7.7-1.76.18Z"/><path class="cls-4" d="M413.27,408.9a3.88,3.88,0,0,1-1.68-1.61,6.7,6.7,0,0,1-.78-2.72l-.28-2.76a7.19,7.19,0,0,1,.23-2.85,3.84,3.84,0,0,1,1.29-1.91,4.16,4.16,0,0,1,2.25-.83,5.63,5.63,0,0,1,2.6.29,4.07,4.07,0,0,1,1.93,1.61l0,2.47a3.28,3.28,0,0,0-.54-1.54A3.08,3.08,0,0,0,417,398a3.55,3.55,0,0,0-4.13.9,3.88,3.88,0,0,0-.6,2.8l.27,2.75A3.83,3.83,0,0,0,413.7,407a3.17,3.17,0,0,0,2.55.7,3.06,3.06,0,0,0,1.66-.64,3.26,3.26,0,0,0,1-1.35,3.43,3.43,0,0,0,.23-1.64l.43,2.64a3.08,3.08,0,0,1-1.35,1.82,6,6,0,0,1-2.53.76A4.57,4.57,0,0,1,413.27,408.9Zm4.59-18,1.77-.17,1.74,17.79-1.76.17Z"/></g></g></svg>